<?xml version="1.0" encoding="utf-8"?>
<!-- Generator: Adobe Illustrator 25.2.1, SVG Export Plug-In . SVG Version: 6.00 Build 0)  -->
<svg version="1.1" id="Layer_1" xmlns="http://www.w3.org/2000/svg" xmlns:xlink="http://www.w3.org/1999/xlink" x="0px" y="0px" viewBox="0 0 100 100" style="enable-background: new 0 0 100 100;" xml:space="preserve">
	<path fill="#eaeaea" d="M90.2,25.5c-0.9,0.2-1.9,0.4-2.9,0.3c-5.2-0.2-9.5-4.4-9.7-9.7c-0.1-1.4,0.2-2.7,0.6-3.9c0.6-1.7,0-3.7-1.6-4.6
		C68.9,2.8,59.8,0,50,0C22.3,0-0.1,22.5,0,50.1C0.1,77.6,22.2,99.8,49.6,100c27.6,0.2,50.3-22.2,50.4-49.8c0-8.2-1.9-15.9-5.3-22.7
		C93.8,25.9,92,25.1,90.2,25.5z"/>
</svg>
