<?xml version="1.0" encoding="utf-8"?>
<svg version="1.1" xmlns="http://www.w3.org/2000/svg" fill="#fff" viewBox="0 0 48.9 50" xml:space="preserve">

	<path d="M38.2,13.9c1.3,0,2.3-1,2.3-2.3c0-1.3-1-2.3-2.3-2.3s-2.3,1-2.3,2.3C35.9,12.9,36.9,13.9,38.2,13.9z M38.2,11
		c0.4,0,0.6,0.3,0.6,0.6s-0.3,0.6-0.6,0.6s-0.6-0.3-0.6-0.6S37.8,11,38.2,11z"/>
	<path d="M17.5,23.1c0-2.9-2.4-5.3-5.3-5.3s-5.3,2.4-5.3,5.3s2.4,5.3,5.3,5.3S17.5,26,17.5,23.1z M8.6,23.1c0-2,1.6-3.7,3.7-3.7
		c2,0,3.7,1.6,3.7,3.7c0,2-1.6,3.7-3.7,3.7C10.2,26.8,8.6,25.1,8.6,23.1z"/>
	<path d="M20.1,18.8c2,0,3.6-1.6,3.6-3.6s-1.6-3.6-3.6-3.6s-3.6,1.6-3.6,3.6S18.1,18.8,20.1,18.8z M20.1,13.1c1.1,0,2,0.9,2,2
		c0,1.1-0.9,2-2,2c-1.1,0-2-0.9-2-2C18.1,14,19,13.1,20.1,13.1z"/>
	<path d="M39.9,4.9c1.3,0,2.4-1.1,2.4-2.4c0-1.3-1.1-2.4-2.4-2.4s-2.4,1.1-2.4,2.4C37.5,3.8,38.6,4.9,39.9,4.9z M39.9,1.6
		c0.4,0,0.8,0.4,0.8,0.8s-0.4,0.8-0.8,0.8c-0.4,0-0.8-0.4-0.8-0.8C39.1,2,39.5,1.6,39.9,1.6z"/>
	<path d="M31.1,32.1c-2.8,0-5,2.2-5,5c0,2.8,2.2,5,5,5s5-2.2,5-5C36.1,34.3,33.8,32.1,31.1,32.1z M31.1,40.4c-1.9,0-3.4-1.5-3.4-3.4
		c0-1.9,1.5-3.4,3.4-3.4c1.9,0,3.4,1.5,3.4,3.4C34.5,38.9,32.9,40.4,31.1,40.4z"/>
	<path d="M48.8,23.2c-3.5,2.1-6.1,1.2-8.2-2c-8.3,2.7-14.4-3.1-11.7-12c-3-1.1-4.1-4.5-2.9-8.2C12.6,0.3,0.7,10.8,0,24.3
		c-0.7,13.5,9.7,25,23.2,25.7c13.5,0.7,25-9.7,25.7-23.2C48.9,25.5,48.9,24.3,48.8,23.2z M47.3,26.7c-0.6,12.2-10.6,21.7-22.8,21.7
		c-0.4,0-0.8,0-1.2,0C10.7,47.7,1,37,1.7,24.4C2.2,12.6,12.2,3,24.1,2.6c-0.4,3.2,0.7,6,3,7.4c-0.8,3.7-0.3,7,1.6,9.6
		c1.8,2.5,4.7,3.9,8.1,3.9c0,0,0,0,0,0c1.1,0,2.2-0.1,3.3-0.4c1.6,1.9,3.4,2.9,5.4,2.9c0.6,0,1.3-0.1,1.9-0.3
		C47.3,26,47.3,26.3,47.3,26.7z"/>
	<path d="M14.6,31.2c-2.3,0-4.2,1.9-4.2,4.2s1.9,4.2,4.2,4.2s4.2-1.9,4.2-4.2S16.9,31.2,14.6,31.2z M14.6,37.9
		c-1.4,0-2.6-1.2-2.6-2.6c0-1.4,1.2-2.6,2.6-2.6s2.6,1.2,2.6,2.6C17.2,36.8,16,37.9,14.6,37.9z"/>
	<path d="M27.5,26.2c0-2.1-1.7-3.7-3.7-3.7c-1,0-1.9,0.4-2.6,1.1c-0.7,0.7-1.1,1.6-1.1,2.6c0,2.1,1.7,3.7,3.7,3.7
		S27.5,28.3,27.5,26.2z M23.7,28.3c-1.2,0-2.1-0.9-2.1-2.1c0-1.2,0.9-2.1,2.1-2.1c1.2,0,2.1,0.9,2.1,2.1
		C25.9,27.4,24.9,28.3,23.7,28.3z"/>

</svg>
