<?xml version="1.0" encoding="utf-8"?>
<!-- Generator: Adobe Illustrator 25.2.0, SVG Export Plug-In . SVG Version: 6.00 Build 0)  -->
<svg version="1.1" id="Layer_1" xmlns="http://www.w3.org/2000/svg" xmlns:xlink="http://www.w3.org/1999/xlink" x="0px" y="0px"
	 viewBox="0 0 250 35" style="enable-background: new 0 0 250 35;" xml:space="preserve">
<style type="text/css">
	.st0 {
		fill: #fff;
	}

	.st1 {
		fill: #111;
	}

	.st2 {
		fill: #000111;
	}
</style>
<rect class="st0" width="250" height="35"/>
<g>
	<path class="st1" d="M12.03,13.1h-1.84v-1.6h5.44v1.6h-1.84v9.6h-1.76V13.1z"/>
	<path class="st1" d="M16.48,11.5h1.76v11.2h-1.76V11.5z"/>
	<path class="st1" d="M20.93,13.1h-1.84v-1.6h5.44v1.6h-1.84v9.6h-1.76V13.1z"/>
	<path class="st1" d="M25.38,11.5h1.76v9.6h2.9v1.6h-4.66V11.5z"/>
	<path class="st1" d="M30.88,11.5h4.8v1.6h-3.04v2.96h2.42v1.6h-2.42v3.44h3.04v1.6h-4.8V11.5z"/>
</g>
<g>
	<path class="st2" d="M182.49,20.71h-1.04V17.1h-3.94v3.62h-1.03v-7.82h1.03v3.36h3.94v-3.36h1.04V20.71z"/>
	<path class="st2" d="M183.9,17.76c0-0.57,0.11-1.08,0.34-1.54c0.22-0.45,0.54-0.8,0.93-1.05s0.86-0.37,1.37-0.37
		c0.79,0,1.43,0.27,1.92,0.82c0.49,0.55,0.73,1.28,0.73,2.19v0.07c0,0.57-0.11,1.07-0.33,1.52s-0.53,0.8-0.93,1.05
		c-0.4,0.25-0.87,0.38-1.39,0.38c-0.79,0-1.43-0.27-1.92-0.82c-0.49-0.55-0.73-1.27-0.73-2.17V17.76z M184.9,17.87
		c0,0.64,0.15,1.16,0.45,1.55s0.7,0.59,1.2,0.59c0.5,0,0.91-0.2,1.2-0.59s0.45-0.95,0.45-1.66c0-0.64-0.15-1.15-0.45-1.55
		c-0.3-0.4-0.71-0.59-1.21-0.59c-0.49,0-0.89,0.2-1.19,0.58C185.05,16.59,184.9,17.15,184.9,17.87z"/>
	<path class="st2" d="M191.38,14.9l0.03,0.64c0.43-0.5,1-0.75,1.72-0.75c0.81,0,1.37,0.31,1.66,0.93c0.19-0.28,0.44-0.5,0.75-0.68
		s0.68-0.26,1.1-0.26c1.27,0,1.92,0.67,1.94,2.02v3.89h-0.99v-3.83c0-0.42-0.09-0.73-0.28-0.93c-0.19-0.21-0.51-0.31-0.96-0.31
		c-0.37,0-0.67,0.11-0.92,0.33c-0.24,0.22-0.39,0.52-0.42,0.89v3.86h-1v-3.81c0-0.84-0.41-1.27-1.24-1.27
		c-0.65,0-1.1,0.28-1.34,0.83v4.24h-0.99V14.9H191.38z"/>
	<path class="st2" d="M202.49,20.82c-0.79,0-1.43-0.26-1.92-0.78s-0.74-1.21-0.74-2.08v-0.18c0-0.58,0.11-1.09,0.33-1.54
		c0.22-0.45,0.53-0.81,0.92-1.06c0.4-0.26,0.82-0.38,1.29-0.38c0.76,0,1.34,0.25,1.76,0.75c0.42,0.5,0.63,1.21,0.63,2.14v0.41h-3.94
		c0.01,0.57,0.18,1.04,0.5,1.39s0.73,0.53,1.22,0.53c0.35,0,0.65-0.07,0.89-0.21c0.24-0.14,0.46-0.33,0.64-0.57l0.61,0.47
		C204.2,20.45,203.47,20.82,202.49,20.82z M202.37,15.61c-0.4,0-0.74,0.15-1.01,0.44c-0.27,0.29-0.44,0.7-0.5,1.23h2.91V17.2
		c-0.03-0.5-0.17-0.9-0.41-1.17C203.12,15.75,202.79,15.61,202.37,15.61z"/>
	<path class="st2" d="M208.83,21.39h-0.85l3.27-8.49h0.85L208.83,21.39z"/>
	<path class="st2" d="M217.08,17.65v3.06h-1.03v-7.82h2.88c0.86,0,1.53,0.22,2.01,0.66s0.73,1.02,0.73,1.73
		c0,0.76-0.24,1.34-0.71,1.75c-0.47,0.41-1.15,0.62-2.04,0.62H217.08z M217.08,16.81h1.85c0.55,0,0.97-0.13,1.27-0.39
		s0.44-0.64,0.44-1.13c0-0.47-0.15-0.84-0.44-1.12c-0.29-0.28-0.7-0.42-1.21-0.44h-1.91V16.81z"/>
	<path class="st2" d="M226.36,20.71c-0.06-0.11-0.1-0.32-0.14-0.61c-0.46,0.48-1.01,0.72-1.65,0.72c-0.57,0-1.04-0.16-1.41-0.49
		s-0.55-0.73-0.55-1.23c0-0.61,0.23-1.08,0.69-1.41s1.11-0.5,1.94-0.5h0.97v-0.46c0-0.35-0.1-0.62-0.31-0.83
		c-0.21-0.21-0.51-0.31-0.92-0.31c-0.35,0-0.65,0.09-0.89,0.27c-0.24,0.18-0.36,0.39-0.36,0.65h-1c0-0.29,0.1-0.57,0.31-0.84
		c0.21-0.27,0.49-0.48,0.84-0.64c0.35-0.16,0.74-0.24,1.16-0.24c0.67,0,1.19,0.17,1.57,0.5c0.38,0.33,0.58,0.8,0.59,1.38v2.67
		c0,0.53,0.07,0.96,0.2,1.27v0.09H226.36z M224.71,19.96c0.31,0,0.61-0.08,0.89-0.24s0.48-0.37,0.61-0.63v-1.19h-0.78
		c-1.22,0-1.83,0.36-1.83,1.07c0,0.31,0.1,0.55,0.31,0.73S224.38,19.96,224.71,19.96z"/>
	<path class="st2" d="M228.52,17.76c0-0.91,0.21-1.63,0.63-2.16c0.42-0.54,0.97-0.8,1.66-0.8c0.71,0,1.26,0.25,1.66,0.75l0.05-0.64
		h0.91v5.67c0,0.75-0.22,1.34-0.67,1.78c-0.45,0.43-1.04,0.65-1.8,0.65c-0.42,0-0.83-0.09-1.23-0.27s-0.71-0.42-0.92-0.74l0.52-0.6
		c0.43,0.53,0.95,0.79,1.56,0.79c0.48,0,0.86-0.14,1.13-0.41c0.27-0.27,0.41-0.65,0.41-1.15v-0.5c-0.4,0.46-0.94,0.69-1.63,0.69
		c-0.68,0-1.23-0.27-1.65-0.82C228.73,19.45,228.52,18.71,228.52,17.76z M229.51,17.87c0,0.66,0.13,1.17,0.4,1.54
		c0.27,0.37,0.64,0.56,1.13,0.56c0.63,0,1.09-0.28,1.38-0.85v-2.65c-0.3-0.56-0.76-0.83-1.37-0.83c-0.48,0-0.86,0.19-1.13,0.56
		C229.65,16.58,229.51,17.14,229.51,17.87z"/>
	<path class="st2" d="M237.34,20.82c-0.79,0-1.43-0.26-1.92-0.78s-0.74-1.21-0.74-2.08v-0.18c0-0.58,0.11-1.09,0.33-1.54
		c0.22-0.45,0.53-0.81,0.92-1.06c0.4-0.26,0.82-0.38,1.29-0.38c0.76,0,1.34,0.25,1.76,0.75c0.42,0.5,0.63,1.21,0.63,2.14v0.41h-3.94
		c0.01,0.57,0.18,1.04,0.5,1.39s0.73,0.53,1.22,0.53c0.35,0,0.65-0.07,0.89-0.21c0.24-0.14,0.46-0.33,0.64-0.57l0.61,0.47
		C239.04,20.45,238.31,20.82,237.34,20.82z M237.21,15.61c-0.4,0-0.74,0.15-1.01,0.44c-0.27,0.29-0.44,0.7-0.5,1.23h2.91V17.2
		c-0.03-0.5-0.17-0.9-0.41-1.17C237.96,15.75,237.63,15.61,237.21,15.61z"/>
</g>
</svg>
