<?xml version="1.0" encoding="utf-8"?>
<!-- Generator: Adobe Illustrator 25.2.1, SVG Export Plug-In . SVG Version: 6.00 Build 0)  -->
<svg version="1.1" id="Layer_1" xmlns="http://www.w3.org/2000/svg" xmlns:xlink="http://www.w3.org/1999/xlink" x="0px" y="0px"
	 viewBox="0 0 250 50" style="enable-background:new 0 0 250 50;" xml:space="preserve">
<style type="text/css">
	.st0{fill:#FFFFFF;}
	.st1{fill:#111111;}
	.st2{fill:#4C4C4C;}
</style>
<rect class="st0" width="250" height="50"/>
<g>
	<path class="st1" d="M12.4,26.4h-1.8v-1.6H16v1.6h-1.8V36h-1.8C12.4,36,12.4,26.4,12.4,26.4z"/>
	<path class="st1" d="M16.8,24.8h1.8V36h-1.8V24.8z"/>
	<path class="st1" d="M21.3,26.4h-1.8v-1.6h5.4v1.6h-1.8V36h-1.8C21.3,36,21.3,26.4,21.3,26.4z"/>
	<path class="st1" d="M25.7,24.8h1.8v9.6h2.9V36h-4.7V24.8L25.7,24.8z"/>
	<path class="st1" d="M31.2,24.8H36v1.6h-3v3h2.4V31H33v3.4h3V36h-4.8V24.8z"/>
</g>
<g>
	<path class="st2" d="M10.6,19v-5H12c0.4,0,0.8,0.1,1.2,0.3c0.3,0.2,0.6,0.5,0.8,0.8c0.2,0.4,0.3,0.8,0.3,1.2v0.3
		c0,0.5-0.1,0.9-0.3,1.2c-0.2,0.4-0.4,0.6-0.8,0.8c-0.3,0.2-0.7,0.3-1.2,0.3C11.9,19,10.6,19,10.6,19z M11.2,14.6v3.9h0.7
		c0.5,0,0.9-0.2,1.2-0.5c0.3-0.3,0.4-0.8,0.4-1.4v-0.3c0-0.6-0.1-1-0.4-1.3s-0.6-0.5-1.1-0.5L11.2,14.6L11.2,14.6z"/>
	<path class="st2" d="M16.6,19.1c-0.5,0-0.9-0.2-1.2-0.5c-0.3-0.3-0.5-0.8-0.5-1.3v-0.1c0-0.4,0.1-0.7,0.2-1
		c0.1-0.3,0.3-0.5,0.6-0.7c0.3-0.2,0.5-0.2,0.8-0.2c0.5,0,0.9,0.2,1.1,0.5c0.3,0.3,0.4,0.8,0.4,1.4v0.3h-2.4c0,0.4,0.1,0.7,0.3,0.9
		c0.2,0.2,0.5,0.3,0.8,0.3c0.2,0,0.4,0,0.6-0.1s0.3-0.2,0.4-0.4l0.4,0.3C17.7,18.9,17.3,19.1,16.6,19.1z M16.6,15.8
		c-0.3,0-0.5,0.1-0.6,0.3c-0.2,0.2-0.3,0.5-0.3,0.8h1.9l0,0c0-0.3-0.1-0.6-0.3-0.8C17,15.9,16.8,15.8,16.6,15.8z"/>
	<path class="st2" d="M21,18.1c0-0.2-0.1-0.3-0.2-0.4s-0.4-0.2-0.7-0.2c-0.3-0.1-0.6-0.1-0.8-0.2c-0.2-0.1-0.3-0.2-0.4-0.3
		c-0.1-0.1-0.1-0.3-0.1-0.5c0-0.3,0.1-0.6,0.4-0.8s0.6-0.3,1-0.3s0.8,0.1,1,0.3c0.3,0.2,0.4,0.5,0.4,0.8H21c0-0.2-0.1-0.3-0.2-0.5
		c-0.1-0.1-0.3-0.2-0.6-0.2c-0.2,0-0.4,0-0.5,0.1c-0.1,0.1-0.2,0.2-0.2,0.4s0.1,0.3,0.2,0.3c0.1,0.1,0.3,0.2,0.7,0.2
		c0.3,0.1,0.6,0.2,0.8,0.3s0.3,0.2,0.4,0.4c0,0.1,0,0.3,0,0.5c0,0.3-0.1,0.6-0.4,0.8c-0.3,0.2-0.6,0.3-1,0.3c-0.3,0-0.6-0.1-0.8-0.2
		c-0.2-0.1-0.4-0.3-0.5-0.4s-0.2-0.4-0.2-0.6h0.6c0,0.2,0.1,0.4,0.3,0.5c0.2,0.1,0.4,0.2,0.6,0.2s0.4,0,0.6-0.1
		C20.9,18.3,21,18.2,21,18.1z"/>
	<path class="st2" d="M23.9,18.6c0.2,0,0.4-0.1,0.6-0.2s0.3-0.3,0.3-0.5h0.6c0,0.2-0.1,0.4-0.2,0.6s-0.3,0.3-0.5,0.5
		c-0.2,0.1-0.5,0.2-0.7,0.2c-0.5,0-0.9-0.2-1.2-0.5c-0.3-0.3-0.5-0.8-0.5-1.4v-0.1c0-0.4,0.1-0.7,0.2-1c0.1-0.3,0.3-0.5,0.6-0.7
		c0.2-0.2,0.5-0.2,0.9-0.2s0.8,0.1,1,0.4c0.3,0.2,0.4,0.6,0.4,1h-0.6c0-0.2-0.1-0.4-0.3-0.6c-0.2-0.2-0.4-0.2-0.6-0.2
		c-0.3,0-0.6,0.1-0.8,0.4c-0.2,0.2-0.3,0.6-0.3,1v0.1c0,0.4,0.1,0.8,0.3,1C23.4,18.5,23.6,18.6,23.9,18.6z"/>
	<path class="st2" d="M27.9,15.9c-0.1,0-0.2,0-0.3,0c-0.4,0-0.7,0.2-0.9,0.5V19h-0.6v-3.7h0.6v0.4c0.2-0.3,0.5-0.5,0.9-0.5
		c0.1,0,0.2,0,0.3,0V15.9z"/>
	<path class="st2" d="M28.5,14.3c0-0.1,0-0.2,0.1-0.3s0.2-0.1,0.3-0.1s0.2,0,0.3,0.1s0.1,0.2,0.1,0.3s0,0.2-0.1,0.3
		s-0.2,0.1-0.3,0.1s-0.2,0-0.3-0.1C28.6,14.5,28.5,14.4,28.5,14.3z M29.2,19h-0.6v-3.7h0.6V19z"/>
	<path class="st2" d="M33.4,17.2c0,0.6-0.1,1-0.4,1.4c-0.3,0.3-0.6,0.5-1,0.5c-0.5,0-0.8-0.1-1.1-0.4v1.8h-0.6v-5.1h0.6v0.4
		c0.3-0.3,0.6-0.5,1.1-0.5c0.4,0,0.8,0.2,1.1,0.5C33.3,16.1,33.4,16.6,33.4,17.2L33.4,17.2L33.4,17.2z M32.7,17.2
		c0-0.4-0.1-0.8-0.3-1s-0.4-0.4-0.7-0.4c-0.4,0-0.7,0.2-0.9,0.5v1.8c0.2,0.3,0.5,0.5,0.9,0.5c0.3,0,0.5-0.1,0.7-0.4
		C32.6,18,32.7,17.6,32.7,17.2z"/>
	<path class="st2" d="M35,14.4v0.9h0.7v0.5H35v2.3c0,0.1,0,0.3,0.1,0.3c0.1,0.1,0.2,0.1,0.3,0.1s0.2,0,0.3,0V19
		c-0.2,0-0.3,0.1-0.5,0.1c-0.3,0-0.5-0.1-0.6-0.3c-0.1-0.2-0.2-0.4-0.2-0.7v-2.3h-0.7v-0.5h0.7v-0.9C34.4,14.4,35,14.4,35,14.4z"/>
	<path class="st2" d="M36.5,14.3c0-0.1,0-0.2,0.1-0.3c0,0,0.1,0,0.3,0s0.2,0,0.3,0.1s0.1,0.2,0.1,0.3s0,0.2-0.1,0.3
		s-0.2,0.1-0.3,0.1s-0.2,0-0.3-0.1C36.5,14.5,36.5,14.4,36.5,14.3z M37.2,19h-0.6v-3.7h0.6V19z"/>
	<path class="st2" d="M38,17.1c0-0.4,0.1-0.7,0.2-1c0.1-0.3,0.3-0.5,0.6-0.7s0.5-0.2,0.9-0.2c0.5,0,0.9,0.2,1.2,0.5
		c0.3,0.4,0.5,0.8,0.5,1.4l0,0c0,0.4-0.1,0.7-0.2,1c-0.1,0.3-0.3,0.5-0.6,0.7S40,19,39.7,19c-0.5,0-0.9-0.2-1.2-0.5
		C38.2,18.2,38,17.8,38,17.1L38,17.1L38,17.1z M38.7,17.2c0,0.4,0.1,0.7,0.3,1s0.5,0.4,0.8,0.4s0.6-0.1,0.8-0.4s0.3-0.6,0.3-1.1
		c0-0.4-0.1-0.7-0.3-1c-0.2-0.3-0.5-0.4-0.8-0.4s-0.6,0.1-0.8,0.4C38.8,16.4,38.7,16.8,38.7,17.2z"/>
	<path class="st2" d="M42.8,15.3v0.5c0.3-0.4,0.7-0.5,1.1-0.5c0.8,0,1.2,0.4,1.2,1.3V19h-0.6v-2.5c0-0.3-0.1-0.5-0.2-0.6
		c-0.1-0.1-0.3-0.2-0.6-0.2c-0.2,0-0.4,0.1-0.5,0.2c-0.2,0.1-0.3,0.3-0.4,0.4V19h-0.6v-3.7H42.8z"/>
</g>
</svg>
