<?xml version="1.0" encoding="utf-8"?>
<svg version="1.1" id="Layer_1" xmlns="http://www.w3.org/2000/svg" xmlns:xlink="http://www.w3.org/1999/xlink"
	viewBox="0 0 250 35" xml:space="preserve">
<rect class="st0" width="250" height="35" fill="#FFFFFF"/>
<g>
	<g>
		<path class="st1" fill="#A0A0A0" d="M125,7.5c-5.51,0-10,4.49-10,10s4.49,10,10,10c5.51,0,10-4.49,10-10S130.51,7.5,125,7.5z M125,25
			c-4.14,0-7.5-3.36-7.5-7.5c0-1.58,0.48-3.07,1.39-4.34l10.46,10.46C128.07,24.52,126.58,25,125,25z M131.11,21.84l-10.46-10.46
			c1.27-0.91,2.77-1.39,4.34-1.39c4.14,0,7.5,3.36,7.5,7.5C132.5,19.08,132.02,20.57,131.11,21.84z"/>
	</g>
</g>
</svg>
